# xmcd
#
# Track frame offsets: 
#        150
#        18052
#        35167
#        52727
#        68000
#        93530
#        114495
#        128197
#        149140
#        170782
#
# Disc length: 2581 seconds
#
# Revision: 2
# Processed by: cddbd v1.5.2PL0 Copyright (c) Steve Scherf et al.
# Submitted via: ExactAudioCopyFreeDBPlugin 1.0
#
DISCID=8c0a130a
DTITLE=井上陽水 - あやしい夜をまって
DYEAR=1981
DGENRE=Folk
TTITLE0=ジェラシー
TTITLE1=海はどうだ
TTITLE2=風のエレジー
TTITLE3=My House
TTITLE4=もうじき夏がくる
TTITLE5=星空へHappy game
TTITLE6=天使 in マガジン
TTITLE7=Yellow Night
TTITLE8=Love is You
TTITLE9=マリーナ・デル・レイ〜ナイト・メロディー
EXTD=YEAR: 1981
EXTT0=
EXTT1=
EXTT2=
EXTT3=
EXTT4=
EXTT5=
EXTT6=
EXTT7=
EXTT8=
EXTT9=
PLAYORDER=
